<svg width="228" height="45" viewBox="0 0 228 45" fill="none" xmlns="http://www.w3.org/2000/svg">
<path d="M9.43466 14.8536H12.6591L16.9773 25.3934H17.1477L21.4659 14.8536H24.6903V29.399H22.1619V19.4061H22.027L18.0071 29.3564H16.1179L12.098 19.3848H11.9631V29.399H9.43466V14.8536ZM32.2756 29.6121C31.1818 29.6121 30.2372 29.3848 29.4418 28.9303C28.651 28.471 28.0426 27.8223 27.6165 26.9843C27.1903 26.1415 26.9773 25.1495 26.9773 24.0084C26.9773 22.8863 27.1903 21.9014 27.6165 21.0539C28.0473 20.2016 28.6487 19.5387 29.4205 19.0652C30.1922 18.587 31.099 18.3479 32.1406 18.3479C32.813 18.3479 33.4474 18.4568 34.044 18.6746C34.6454 18.8877 35.1757 19.2191 35.6349 19.6689C36.099 20.1187 36.4635 20.6917 36.7287 21.3877C36.9938 22.079 37.1264 22.9028 37.1264 23.8593V24.6476H28.1847V22.9147H34.6619C34.6572 22.4222 34.5507 21.9843 34.3423 21.6008C34.134 21.2125 33.8428 20.9071 33.4688 20.6846C33.0994 20.462 32.6686 20.3508 32.1761 20.3508C31.6506 20.3508 31.1889 20.4786 30.7912 20.7343C30.3935 20.9852 30.0833 21.3167 29.8608 21.7286C29.643 22.1358 29.5317 22.5832 29.527 23.0709V24.5837C29.527 25.2182 29.643 25.7627 29.875 26.2172C30.107 26.667 30.4313 27.0127 30.848 27.2542C31.2647 27.4909 31.7524 27.6093 32.3111 27.6093C32.6851 27.6093 33.0237 27.5572 33.3267 27.453C33.6297 27.3441 33.8925 27.1855 34.1151 26.9772C34.3376 26.7688 34.5057 26.5108 34.6193 26.203L37.0199 26.4729C36.8684 27.1074 36.5795 27.6614 36.1534 28.1348C35.732 28.6036 35.1922 28.9682 34.5341 29.2286C33.8759 29.4843 33.1231 29.6121 32.2756 29.6121ZM44.131 29.6121C43.0373 29.6121 42.0927 29.3848 41.2972 28.9303C40.5065 28.471 39.8981 27.8223 39.4719 26.9843C39.0458 26.1415 38.8327 25.1495 38.8327 24.0084C38.8327 22.8863 39.0458 21.9014 39.4719 21.0539C39.9028 20.2016 40.5041 19.5387 41.2759 19.0652C42.0477 18.587 42.9544 18.3479 43.9961 18.3479C44.6684 18.3479 45.3029 18.4568 45.8995 18.6746C46.5008 18.8877 47.0311 19.2191 47.4904 19.6689C47.9544 20.1187 48.319 20.6917 48.5842 21.3877C48.8493 22.079 48.9819 22.9028 48.9819 23.8593V24.6476H40.0401V22.9147H46.5174C46.5127 22.4222 46.4061 21.9843 46.1978 21.6008C45.9895 21.2125 45.6983 20.9071 45.3242 20.6846C44.9549 20.462 44.524 20.3508 44.0316 20.3508C43.506 20.3508 43.0444 20.4786 42.6467 20.7343C42.2489 20.9852 41.9388 21.3167 41.7163 21.7286C41.4985 22.1358 41.3872 22.5832 41.3825 23.0709V24.5837C41.3825 25.2182 41.4985 25.7627 41.7305 26.2172C41.9625 26.667 42.2868 27.0127 42.7035 27.2542C43.1201 27.4909 43.6078 27.6093 44.1665 27.6093C44.5406 27.6093 44.8791 27.5572 45.1822 27.453C45.4852 27.3441 45.748 27.1855 45.9705 26.9772C46.1931 26.7688 46.3612 26.5108 46.4748 26.203L48.8754 26.4729C48.7238 27.1074 48.435 27.6614 48.0089 28.1348C47.5875 28.6036 47.0477 28.9682 46.3896 29.2286C45.7314 29.4843 44.9786 29.6121 44.131 29.6121ZM56.6044 18.49V20.4786H50.3331V18.49H56.6044ZM51.8814 15.8763H54.4524V26.1178C54.4524 26.4634 54.5045 26.7286 54.6087 26.9133C54.7176 27.0932 54.8596 27.2163 55.0348 27.2826C55.21 27.3489 55.4041 27.382 55.6172 27.382C55.7782 27.382 55.925 27.3702 56.0575 27.3465C56.1948 27.3228 56.299 27.3015 56.37 27.2826L56.8033 29.2925C56.666 29.3399 56.4695 29.3919 56.2138 29.4488C55.9628 29.5056 55.6551 29.5387 55.2905 29.5482C54.6465 29.5671 54.0665 29.4701 53.5504 29.257C53.0343 29.0392 52.6248 28.703 52.3217 28.2485C52.0234 27.7939 51.8767 27.2258 51.8814 26.5439V15.8763ZM66.8548 29.6192C66.1635 29.6192 65.5408 29.4961 64.9869 29.2499C64.4376 28.999 64.002 28.6296 63.68 28.1419C63.3628 27.6543 63.2042 27.0529 63.2042 26.338C63.2042 25.7224 63.3178 25.2134 63.5451 24.811C63.7724 24.4085 64.0825 24.0865 64.4755 23.8451C64.8685 23.6036 65.3112 23.4213 65.8036 23.2982C66.3008 23.1704 66.8145 23.078 67.3448 23.0212C67.984 22.9549 68.5025 22.8957 68.9002 22.8436C69.2979 22.7868 69.5868 22.7016 69.7667 22.588C69.9513 22.4696 70.0437 22.2873 70.0437 22.0411V21.9985C70.0437 21.4634 69.8851 21.0491 69.5678 20.7556C69.2506 20.462 68.7937 20.3152 68.1971 20.3152C67.5674 20.3152 67.0678 20.4526 66.6985 20.7272C66.3339 21.0018 66.0877 21.3261 65.9599 21.7002L63.5593 21.3593C63.7487 20.6964 64.0612 20.1424 64.4968 19.6973C64.9324 19.2475 65.4651 18.9114 66.0948 18.6888C66.7246 18.4615 67.4206 18.3479 68.1829 18.3479C68.7085 18.3479 69.2317 18.4095 69.7525 18.5326C70.2733 18.6557 70.7492 18.8593 71.18 19.1434C71.6109 19.4227 71.9566 19.8039 72.217 20.2868C72.4821 20.7698 72.6147 21.3735 72.6147 22.0979V29.399H70.1431V27.9005H70.0579C69.9016 28.2035 69.6815 28.4876 69.3974 28.7527C69.118 29.0132 68.7653 29.2239 68.3391 29.3848C67.9177 29.5411 67.4229 29.6192 66.8548 29.6192ZM67.5224 27.73C68.0385 27.73 68.4859 27.6282 68.8647 27.4246C69.2435 27.2163 69.5347 26.9417 69.7383 26.6008C69.9466 26.2598 70.0508 25.8882 70.0508 25.4857V24.2002C69.9703 24.2665 69.833 24.328 69.6388 24.3848C69.4495 24.4417 69.2364 24.4914 68.9996 24.534C68.7629 24.5766 68.5285 24.6145 68.2965 24.6476C68.0645 24.6808 67.8633 24.7092 67.6928 24.7329C67.3093 24.7849 66.966 24.8702 66.663 24.9885C66.36 25.1069 66.1209 25.2726 65.9457 25.4857C65.7705 25.694 65.6829 25.9639 65.6829 26.2954C65.6829 26.7688 65.8557 27.1263 66.2013 27.3678C66.547 27.6093 66.9873 27.73 67.5224 27.73ZM77.771 14.8536V29.399H75.1999V14.8536H77.771ZM82.9858 14.8536V29.399H80.4148V14.8536H82.9858ZM95.3491 29.6121C94.2601 29.6121 93.3249 29.373 92.5437 28.8948C91.7672 28.4166 91.1682 27.7561 90.7468 26.9133C90.3301 26.0657 90.1218 25.0903 90.1218 23.9871C90.1218 22.8792 90.3349 21.9014 90.761 21.0539C91.1871 20.2016 91.7885 19.5387 92.565 19.0652C93.3462 18.587 94.2695 18.3479 95.3349 18.3479C96.2203 18.3479 97.0039 18.5113 97.6857 18.838C98.3723 19.1599 98.9192 19.6169 99.3263 20.2087C99.7335 20.7958 99.9656 21.4824 100.022 22.2684H97.565C97.4656 21.7428 97.2288 21.3048 96.8548 20.9544C96.4854 20.5993 95.9906 20.4218 95.3704 20.4218C94.8448 20.4218 94.3832 20.5638 93.9854 20.8479C93.5877 21.1273 93.2776 21.5297 93.055 22.0553C92.8372 22.5809 92.7283 23.2106 92.7283 23.9445C92.7283 24.6879 92.8372 25.3271 93.055 25.8621C93.2728 26.3924 93.5782 26.802 93.9712 27.0908C94.369 27.3749 94.8353 27.5169 95.3704 27.5169C95.7492 27.5169 96.0877 27.4459 96.386 27.3039C96.689 27.1571 96.9424 26.9464 97.146 26.6718C97.3496 26.3972 97.4892 26.0633 97.565 25.6704H100.022C99.9608 26.4421 99.7335 27.1263 99.3406 27.7229C98.9476 28.3148 98.4125 28.7788 97.7354 29.115C97.0584 29.4464 96.2629 29.6121 95.3491 29.6121ZM109.087 24.811V18.49H111.658V29.399H109.165V27.4601H109.051C108.805 28.0709 108.4 28.5704 107.837 28.9587C107.278 29.347 106.589 29.5411 105.77 29.5411C105.055 29.5411 104.423 29.3825 103.874 29.0652C103.329 28.7433 102.903 28.2769 102.595 27.6661C102.287 27.0506 102.134 26.3072 102.134 25.436V18.49H104.705V25.0383C104.705 25.7295 104.894 26.2788 105.273 26.686C105.652 27.0932 106.149 27.2968 106.764 27.2968C107.143 27.2968 107.51 27.2044 107.865 27.0198C108.22 26.8351 108.511 26.5605 108.739 26.1959C108.971 25.8266 109.087 25.365 109.087 24.811ZM122.924 21.3735L120.58 21.6292C120.514 21.3924 120.398 21.1699 120.232 20.9615C120.071 20.7532 119.853 20.5851 119.578 20.4573C119.304 20.3294 118.968 20.2655 118.57 20.2655C118.035 20.2655 117.585 20.3815 117.221 20.6135C116.861 20.8455 116.683 21.1462 116.688 21.5155C116.683 21.8328 116.799 22.0908 117.036 22.2897C117.277 22.4885 117.675 22.6519 118.229 22.7797L120.09 23.1775C121.122 23.4 121.889 23.7527 122.391 24.2357C122.898 24.7186 123.153 25.3508 123.158 26.132C123.153 26.8186 122.952 27.4246 122.554 27.9502C122.161 28.471 121.614 28.8782 120.914 29.1718C120.213 29.4653 119.408 29.6121 118.499 29.6121C117.164 29.6121 116.089 29.3328 115.275 28.774C114.46 28.2106 113.975 27.427 113.819 26.4232L116.326 26.1817C116.439 26.6741 116.681 27.0458 117.05 27.2968C117.419 27.5477 117.9 27.6732 118.492 27.6732C119.103 27.6732 119.593 27.5477 119.962 27.2968C120.336 27.0458 120.523 26.7357 120.523 26.3664C120.523 26.0539 120.402 25.7958 120.161 25.5922C119.924 25.3886 119.555 25.2324 119.053 25.1235L117.192 24.7329C116.146 24.5151 115.372 24.1481 114.87 23.632C114.368 23.1112 114.119 22.453 114.124 21.6576C114.119 20.9852 114.301 20.4028 114.671 19.9104C115.045 19.4133 115.563 19.0297 116.226 18.7598C116.894 18.4852 117.663 18.3479 118.534 18.3479C119.813 18.3479 120.819 18.6202 121.553 19.1647C122.292 19.7092 122.748 20.4454 122.924 21.3735ZM130.725 18.49V20.4786H124.454V18.49H130.725ZM126.002 15.8763H128.574V26.1178C128.574 26.4634 128.626 26.7286 128.73 26.9133C128.839 27.0932 128.981 27.2163 129.156 27.2826C129.331 27.3489 129.525 27.382 129.738 27.382C129.899 27.382 130.046 27.3702 130.179 27.3465C130.316 27.3228 130.42 27.3015 130.491 27.2826L130.924 29.2925C130.787 29.3399 130.591 29.3919 130.335 29.4488C130.084 29.5056 129.776 29.5387 129.412 29.5482C128.768 29.5671 128.188 29.4701 127.672 29.257C127.155 29.0392 126.746 28.703 126.443 28.2485C126.145 27.7939 125.998 27.2258 126.002 26.5439V15.8763ZM137.517 29.6121C136.452 29.6121 135.528 29.3777 134.747 28.909C133.966 28.4402 133.36 27.7845 132.929 26.9417C132.503 26.0989 132.29 25.114 132.29 23.9871C132.29 22.8602 132.503 21.873 132.929 21.0255C133.36 20.1779 133.966 19.5198 134.747 19.051C135.528 18.5823 136.452 18.3479 137.517 18.3479C138.582 18.3479 139.506 18.5823 140.287 19.051C141.068 19.5198 141.672 20.1779 142.098 21.0255C142.529 21.873 142.744 22.8602 142.744 23.9871C142.744 25.114 142.529 26.0989 142.098 26.9417C141.672 27.7845 141.068 28.4402 140.287 28.909C139.506 29.3777 138.582 29.6121 137.517 29.6121ZM137.531 27.5525C138.109 27.5525 138.592 27.3938 138.98 27.0766C139.368 26.7546 139.657 26.3238 139.847 25.784C140.041 25.2442 140.138 24.6429 140.138 23.98C140.138 23.3124 140.041 22.7087 139.847 22.1689C139.657 21.6244 139.368 21.1912 138.98 20.8692C138.592 20.5472 138.109 20.3863 137.531 20.3863C136.939 20.3863 136.447 20.5472 136.054 20.8692C135.666 21.1912 135.375 21.6244 135.18 22.1689C134.991 22.7087 134.896 23.3124 134.896 23.98C134.896 24.6429 134.991 25.2442 135.18 25.784C135.375 26.3238 135.666 26.7546 136.054 27.0766C136.447 27.3938 136.939 27.5525 137.531 27.5525ZM144.926 29.399V18.49H147.384V20.3436H147.512C147.739 19.7186 148.115 19.231 148.641 18.8806C149.167 18.5255 149.794 18.3479 150.523 18.3479C151.262 18.3479 151.884 18.5278 152.391 18.8877C152.902 19.2428 153.262 19.7281 153.471 20.3436H153.584C153.826 19.7376 154.233 19.2546 154.806 18.8948C155.383 18.5302 156.068 18.3479 156.858 18.3479C157.862 18.3479 158.681 18.6651 159.316 19.2996C159.95 19.9341 160.267 20.8597 160.267 22.0766V29.399H157.689V22.4743C157.689 21.7972 157.509 21.3025 157.15 20.99C156.79 20.6727 156.349 20.5141 155.828 20.5141C155.208 20.5141 154.723 20.7082 154.373 21.0965C154.027 21.48 153.854 21.9795 153.854 22.5951V29.399H151.333V22.3678C151.333 21.8044 151.162 21.3545 150.821 21.0184C150.485 20.6822 150.045 20.5141 149.5 20.5141C149.131 20.5141 148.795 20.6088 148.492 20.7982C148.189 20.9829 147.947 21.2456 147.767 21.5865C147.587 21.9227 147.498 22.3157 147.498 22.7655V29.399H144.926ZM167.705 29.6121C166.612 29.6121 165.667 29.3848 164.871 28.9303C164.081 28.471 163.472 27.8223 163.046 26.9843C162.62 26.1415 162.407 25.1495 162.407 24.0084C162.407 22.8863 162.62 21.9014 163.046 21.0539C163.477 20.2016 164.078 19.5387 164.85 19.0652C165.622 18.587 166.529 18.3479 167.57 18.3479C168.243 18.3479 168.877 18.4568 169.474 18.6746C170.075 18.8877 170.605 19.2191 171.065 19.6689C171.529 20.1187 171.893 20.6917 172.158 21.3877C172.424 22.079 172.556 22.9028 172.556 23.8593V24.6476H163.614V22.9147H170.092C170.087 22.4222 169.98 21.9843 169.772 21.6008C169.564 21.2125 169.272 20.9071 168.898 20.6846C168.529 20.462 168.098 20.3508 167.606 20.3508C167.08 20.3508 166.619 20.4786 166.221 20.7343C165.823 20.9852 165.513 21.3167 165.29 21.7286C165.073 22.1358 164.961 22.5832 164.957 23.0709V24.5837C164.957 25.2182 165.073 25.7627 165.305 26.2172C165.537 26.667 165.861 27.0127 166.278 27.2542C166.694 27.4909 167.182 27.6093 167.741 27.6093C168.115 27.6093 168.453 27.5572 168.756 27.453C169.059 27.3441 169.322 27.1855 169.545 26.9772C169.767 26.7688 169.935 26.5108 170.049 26.203L172.45 26.4729C172.298 27.1074 172.009 27.6614 171.583 28.1348C171.162 28.6036 170.622 28.9682 169.964 29.2286C169.306 29.4843 168.553 29.6121 167.705 29.6121ZM174.731 29.399V18.49H177.224V20.3081H177.338C177.537 19.6784 177.877 19.1931 178.36 18.8522C178.848 18.5065 179.404 18.3337 180.029 18.3337C180.172 18.3337 180.33 18.3408 180.505 18.355C180.685 18.3645 180.834 18.3811 180.953 18.4047V20.7698C180.844 20.7319 180.671 20.6988 180.434 20.6704C180.202 20.6372 179.977 20.6206 179.76 20.6206C179.291 20.6206 178.869 20.7224 178.495 20.926C178.126 21.1249 177.835 21.4019 177.622 21.757C177.409 22.1121 177.302 22.5217 177.302 22.9857V29.399H174.731ZM191.283 21.3735L188.939 21.6292C188.873 21.3924 188.757 21.1699 188.591 20.9615C188.43 20.7532 188.212 20.5851 187.938 20.4573C187.663 20.3294 187.327 20.2655 186.929 20.2655C186.394 20.2655 185.944 20.3815 185.58 20.6135C185.22 20.8455 185.042 21.1462 185.047 21.5155C185.042 21.8328 185.158 22.0908 185.395 22.2897C185.637 22.4885 186.034 22.6519 186.588 22.7797L188.449 23.1775C189.481 23.4 190.248 23.7527 190.75 24.2357C191.257 24.7186 191.513 25.3508 191.517 26.132C191.513 26.8186 191.311 27.4246 190.914 27.9502C190.521 28.471 189.974 28.8782 189.273 29.1718C188.572 29.4653 187.767 29.6121 186.858 29.6121C185.523 29.6121 184.448 29.3328 183.634 28.774C182.819 28.2106 182.334 27.427 182.178 26.4232L184.685 26.1817C184.799 26.6741 185.04 27.0458 185.409 27.2968C185.779 27.5477 186.259 27.6732 186.851 27.6732C187.462 27.6732 187.952 27.5477 188.321 27.2968C188.695 27.0458 188.882 26.7357 188.882 26.3664C188.882 26.0539 188.762 25.7958 188.52 25.5922C188.283 25.3886 187.914 25.2324 187.412 25.1235L185.551 24.7329C184.505 24.5151 183.731 24.1481 183.229 23.632C182.727 23.1112 182.479 22.453 182.483 21.6576C182.479 20.9852 182.661 20.4028 183.03 19.9104C183.404 19.4133 183.923 19.0297 184.586 18.7598C185.253 18.4852 186.023 18.3479 186.894 18.3479C188.172 18.3479 189.178 18.6202 189.912 19.1647C190.651 19.7092 191.108 20.4454 191.283 21.3735Z" fill="#4CAF4F"/>
<path d="M220 26.399L223.293 23.1062C223.683 22.7156 223.683 22.0825 223.293 21.6919L220 18.399M223 22.399L209 22.399" stroke="#4CAF4F" stroke-width="1.5" stroke-linecap="round"/>
</svg>
