<svg width="286" height="45" viewBox="0 0 286 45" fill="none" xmlns="http://www.w3.org/2000/svg">
<path d="M78.9347 29.399V14.8536H84.3892C85.5066 14.8536 86.4441 15.0477 87.2017 15.436C87.964 15.8242 88.5393 16.3687 88.9276 17.0695C89.3205 17.7655 89.517 18.5776 89.517 19.5056C89.517 20.4383 89.3182 21.248 88.9205 21.9346C88.5275 22.6164 87.9474 23.1443 87.1804 23.5184C86.4134 23.8877 85.4711 24.0723 84.3537 24.0723H80.4688V21.8848H83.9986C84.652 21.8848 85.187 21.7949 85.6037 21.615C86.0204 21.4303 86.3281 21.1628 86.527 20.8124C86.7306 20.4573 86.8324 20.0217 86.8324 19.5056C86.8324 18.9895 86.7306 18.5491 86.527 18.1846C86.3234 17.8152 86.0133 17.5359 85.5966 17.3465C85.1799 17.1524 84.6425 17.0553 83.9844 17.0553H81.5696V29.399H78.9347ZM86.4489 22.8081L90.0497 29.399H87.1094L83.5724 22.8081H86.4489ZM96.5021 29.6121C95.4084 29.6121 94.4638 29.3848 93.6683 28.9303C92.8776 28.471 92.2692 27.8223 91.843 26.9843C91.4169 26.1415 91.2038 25.1495 91.2038 24.0084C91.2038 22.8863 91.4169 21.9014 91.843 21.0539C92.2739 20.2016 92.8752 19.5387 93.647 19.0652C94.4188 18.587 95.3255 18.3479 96.3672 18.3479C97.0395 18.3479 97.674 18.4568 98.2706 18.6746C98.8719 18.8877 99.4022 19.2191 99.8615 19.6689C100.326 20.1187 100.69 20.6917 100.955 21.3877C101.22 22.079 101.353 22.9028 101.353 23.8593V24.6476H92.4112V22.9147H98.8885C98.8838 22.4222 98.7772 21.9843 98.5689 21.6008C98.3606 21.2125 98.0694 20.9071 97.6953 20.6846C97.326 20.462 96.8951 20.3508 96.4027 20.3508C95.8771 20.3508 95.4155 20.4786 95.0178 20.7343C94.62 20.9852 94.3099 21.3167 94.0874 21.7286C93.8696 22.1358 93.7583 22.5832 93.7536 23.0709V24.5837C93.7536 25.2182 93.8696 25.7627 94.1016 26.2172C94.3336 26.667 94.6579 27.0127 95.0746 27.2542C95.4912 27.4909 95.9789 27.6093 96.5376 27.6093C96.9117 27.6093 97.2502 27.5572 97.5533 27.453C97.8563 27.3441 98.1191 27.1855 98.3416 26.9772C98.5642 26.7688 98.7322 26.5108 98.8459 26.203L101.246 26.4729C101.095 27.1074 100.806 27.6614 100.38 28.1348C99.9586 28.6036 99.4188 28.9682 98.7607 29.2286C98.1025 29.4843 97.3497 29.6121 96.5021 29.6121ZM106.667 29.6192C105.976 29.6192 105.353 29.4961 104.799 29.2499C104.25 28.999 103.815 28.6296 103.493 28.1419C103.175 27.6543 103.017 27.0529 103.017 26.338C103.017 25.7224 103.13 25.2134 103.358 24.811C103.585 24.4085 103.895 24.0865 104.288 23.8451C104.681 23.6036 105.124 23.4213 105.616 23.2982C106.113 23.1704 106.627 23.078 107.157 23.0212C107.797 22.9549 108.315 22.8957 108.713 22.8436C109.11 22.7868 109.399 22.7016 109.579 22.588C109.764 22.4696 109.856 22.2873 109.856 22.0411V21.9985C109.856 21.4634 109.698 21.0491 109.38 20.7556C109.063 20.462 108.606 20.3152 108.01 20.3152C107.38 20.3152 106.88 20.4526 106.511 20.7272C106.146 21.0018 105.9 21.3261 105.772 21.7002L103.372 21.3593C103.561 20.6964 103.874 20.1424 104.309 19.6973C104.745 19.2475 105.278 18.9114 105.907 18.6888C106.537 18.4615 107.233 18.3479 107.995 18.3479C108.521 18.3479 109.044 18.4095 109.565 18.5326C110.086 18.6557 110.562 18.8593 110.993 19.1434C111.423 19.4227 111.769 19.8039 112.029 20.2868C112.295 20.7698 112.427 21.3735 112.427 22.0979V29.399H109.956V27.9005H109.87C109.714 28.2035 109.494 28.4876 109.21 28.7527C108.931 29.0132 108.578 29.2239 108.152 29.3848C107.73 29.5411 107.235 29.6192 106.667 29.6192ZM107.335 27.73C107.851 27.73 108.298 27.6282 108.677 27.4246C109.056 27.2163 109.347 26.9417 109.551 26.6008C109.759 26.2598 109.863 25.8882 109.863 25.4857V24.2002C109.783 24.2665 109.645 24.328 109.451 24.3848C109.262 24.4417 109.049 24.4914 108.812 24.534C108.575 24.5766 108.341 24.6145 108.109 24.6476C107.877 24.6808 107.676 24.7092 107.505 24.7329C107.122 24.7849 106.779 24.8702 106.475 24.9885C106.172 25.1069 105.933 25.2726 105.758 25.4857C105.583 25.694 105.495 25.9639 105.495 26.2954C105.495 26.7688 105.668 27.1263 106.014 27.3678C106.359 27.6093 106.8 27.73 107.335 27.73ZM119.061 29.5908C118.204 29.5908 117.437 29.3706 116.76 28.9303C116.083 28.49 115.547 27.8508 115.154 27.0127C114.761 26.1746 114.565 25.1566 114.565 23.9587C114.565 22.7466 114.764 21.7239 115.162 20.8905C115.564 20.0525 116.106 19.4204 116.788 18.9942C117.47 18.5633 118.23 18.3479 119.068 18.3479C119.707 18.3479 120.233 18.4568 120.645 18.6746C121.056 18.8877 121.383 19.1457 121.625 19.4488C121.866 19.7471 122.053 20.0288 122.186 20.2939H122.292V14.8536H124.87V29.399H122.342V27.6803H122.186C122.053 27.9454 121.861 28.2272 121.61 28.5255C121.359 28.819 121.028 29.07 120.616 29.2783C120.204 29.4866 119.686 29.5908 119.061 29.5908ZM119.778 27.4814C120.323 27.4814 120.787 27.3347 121.17 27.0411C121.554 26.7428 121.845 26.3285 122.044 25.7982C122.243 25.2679 122.342 24.65 122.342 23.9445C122.342 23.239 122.243 22.6258 122.044 22.105C121.85 21.5842 121.561 21.1794 121.177 20.8905C120.798 20.6017 120.332 20.4573 119.778 20.4573C119.205 20.4573 118.727 20.6064 118.343 20.9047C117.96 21.203 117.671 21.615 117.477 22.1405C117.283 22.6661 117.186 23.2674 117.186 23.9445C117.186 24.6263 117.283 25.2347 117.477 25.7698C117.676 26.3001 117.967 26.7191 118.35 27.0269C118.739 27.3299 119.215 27.4814 119.778 27.4814ZM127.61 29.399V18.49H130.067V20.3436H130.195C130.423 19.7186 130.799 19.231 131.325 18.8806C131.85 18.5255 132.478 18.3479 133.207 18.3479C133.945 18.3479 134.568 18.5278 135.075 18.8877C135.586 19.2428 135.946 19.7281 136.154 20.3436H136.268C136.509 19.7376 136.916 19.2546 137.489 18.8948C138.067 18.5302 138.751 18.3479 139.542 18.3479C140.546 18.3479 141.365 18.6651 141.999 19.2996C142.634 19.9341 142.951 20.8597 142.951 22.0766V29.399H140.373V22.4743C140.373 21.7972 140.193 21.3025 139.833 20.99C139.473 20.6727 139.033 20.5141 138.512 20.5141C137.892 20.5141 137.406 20.7082 137.056 21.0965C136.71 21.48 136.538 21.9795 136.538 22.5951V29.399H134.016V22.3678C134.016 21.8044 133.846 21.3545 133.505 21.0184C133.169 20.6822 132.728 20.5141 132.184 20.5141C131.815 20.5141 131.478 20.6088 131.175 20.7982C130.872 20.9829 130.631 21.2456 130.451 21.5865C130.271 21.9227 130.181 22.3157 130.181 22.7655V29.399H127.61ZM150.318 29.6121C149.252 29.6121 148.329 29.3777 147.548 28.909C146.767 28.4402 146.161 27.7845 145.73 26.9417C145.304 26.0989 145.091 25.114 145.091 23.9871C145.091 22.8602 145.304 21.873 145.73 21.0255C146.161 20.1779 146.767 19.5198 147.548 19.051C148.329 18.5823 149.252 18.3479 150.318 18.3479C151.383 18.3479 152.306 18.5823 153.088 19.051C153.869 19.5198 154.473 20.1779 154.899 21.0255C155.33 21.873 155.545 22.8602 155.545 23.9871C155.545 25.114 155.33 26.0989 154.899 26.9417C154.473 27.7845 153.869 28.4402 153.088 28.909C152.306 29.3777 151.383 29.6121 150.318 29.6121ZM150.332 27.5525C150.91 27.5525 151.393 27.3938 151.781 27.0766C152.169 26.7546 152.458 26.3238 152.647 25.784C152.842 25.2442 152.939 24.6429 152.939 23.98C152.939 23.3124 152.842 22.7087 152.647 22.1689C152.458 21.6244 152.169 21.1912 151.781 20.8692C151.393 20.5472 150.91 20.3863 150.332 20.3863C149.74 20.3863 149.248 20.5472 148.855 20.8692C148.467 21.1912 148.175 21.6244 147.981 22.1689C147.792 22.7087 147.697 23.3124 147.697 23.98C147.697 24.6429 147.792 25.2442 147.981 25.784C148.175 26.3238 148.467 26.7546 148.855 27.0766C149.248 27.3938 149.74 27.5525 150.332 27.5525ZM157.727 29.399V18.49H160.22V20.3081H160.334C160.533 19.6784 160.874 19.1931 161.357 18.8522C161.844 18.5065 162.401 18.3337 163.026 18.3337C163.168 18.3337 163.326 18.3408 163.501 18.355C163.681 18.3645 163.83 18.3811 163.949 18.4047V20.7698C163.84 20.7319 163.667 20.6988 163.43 20.6704C163.198 20.6372 162.973 20.6206 162.756 20.6206C162.287 20.6206 161.866 20.7224 161.491 20.926C161.122 21.1249 160.831 21.4019 160.618 21.757C160.405 22.1121 160.298 22.5217 160.298 22.9857V29.399H157.727ZM170.037 29.6121C168.944 29.6121 167.999 29.3848 167.203 28.9303C166.413 28.471 165.804 27.8223 165.378 26.9843C164.952 26.1415 164.739 25.1495 164.739 24.0084C164.739 22.8863 164.952 21.9014 165.378 21.0539C165.809 20.2016 166.41 19.5387 167.182 19.0652C167.954 18.587 168.861 18.3479 169.902 18.3479C170.575 18.3479 171.209 18.4568 171.806 18.6746C172.407 18.8877 172.937 19.2191 173.397 19.6689C173.861 20.1187 174.225 20.6917 174.49 21.3877C174.756 22.079 174.888 22.9028 174.888 23.8593V24.6476H165.946V22.9147H172.424C172.419 22.4222 172.312 21.9843 172.104 21.6008C171.896 21.2125 171.605 20.9071 171.23 20.6846C170.861 20.462 170.43 20.3508 169.938 20.3508C169.412 20.3508 168.951 20.4786 168.553 20.7343C168.155 20.9852 167.845 21.3167 167.623 21.7286C167.405 22.1358 167.293 22.5832 167.289 23.0709V24.5837C167.289 25.2182 167.405 25.7627 167.637 26.2172C167.869 26.667 168.193 27.0127 168.61 27.2542C169.026 27.4909 169.514 27.6093 170.073 27.6093C170.447 27.6093 170.785 27.5572 171.088 27.453C171.391 27.3441 171.654 27.1855 171.877 26.9772C172.099 26.7688 172.267 26.5108 172.381 26.203L174.782 26.4729C174.63 27.1074 174.341 27.6614 173.915 28.1348C173.494 28.6036 172.954 28.9682 172.296 29.2286C171.638 29.4843 170.885 29.6121 170.037 29.6121Z" fill="#4CAF4F"/>
<path d="M200.5 26.399L203.793 23.1062C204.183 22.7156 204.183 22.0825 203.793 21.6919L200.5 18.399M203.5 22.399L189.5 22.399" stroke="#4CAF4F" stroke-width="1.5" stroke-linecap="round"/>
</svg>
